G04 #@! TF.GenerationSoftware,KiCad,Pcbnew,(5.1.5)-3*
G04 #@! TF.CreationDate,2020-05-23T19:11:45+09:00*
G04 #@! TF.ProjectId,TPS61322xA_Breakout,54505336-3133-4323-9278-415f42726561,rev?*
G04 #@! TF.SameCoordinates,Original*
G04 #@! TF.FileFunction,Soldermask,Top*
G04 #@! TF.FilePolarity,Negative*
%FSLAX46Y46*%
G04 Gerber Fmt 4.6, Leading zero omitted, Abs format (unit mm)*
G04 Created by KiCad (PCBNEW (5.1.5)-3) date 2020-05-23 19:11:45*
%MOMM*%
%LPD*%
G04 APERTURE LIST*
%ADD10C,0.100000*%
G04 APERTURE END LIST*
D10*
G36*
X155823228Y-110941703D02*
G01*
X155978100Y-111005853D01*
X156117481Y-111098985D01*
X156236015Y-111217519D01*
X156329147Y-111356900D01*
X156393297Y-111511772D01*
X156426000Y-111676184D01*
X156426000Y-111843816D01*
X156393297Y-112008228D01*
X156329147Y-112163100D01*
X156236015Y-112302481D01*
X156117481Y-112421015D01*
X155978100Y-112514147D01*
X155823228Y-112578297D01*
X155658816Y-112611000D01*
X155491184Y-112611000D01*
X155326772Y-112578297D01*
X155171900Y-112514147D01*
X155032519Y-112421015D01*
X154913985Y-112302481D01*
X154820853Y-112163100D01*
X154756703Y-112008228D01*
X154724000Y-111843816D01*
X154724000Y-111676184D01*
X154756703Y-111511772D01*
X154820853Y-111356900D01*
X154913985Y-111217519D01*
X155032519Y-111098985D01*
X155171900Y-111005853D01*
X155326772Y-110941703D01*
X155491184Y-110909000D01*
X155658816Y-110909000D01*
X155823228Y-110941703D01*
G37*
G36*
X153283228Y-110941703D02*
G01*
X153438100Y-111005853D01*
X153577481Y-111098985D01*
X153696015Y-111217519D01*
X153789147Y-111356900D01*
X153853297Y-111511772D01*
X153886000Y-111676184D01*
X153886000Y-111843816D01*
X153853297Y-112008228D01*
X153789147Y-112163100D01*
X153696015Y-112302481D01*
X153577481Y-112421015D01*
X153438100Y-112514147D01*
X153283228Y-112578297D01*
X153118816Y-112611000D01*
X152951184Y-112611000D01*
X152786772Y-112578297D01*
X152631900Y-112514147D01*
X152492519Y-112421015D01*
X152373985Y-112302481D01*
X152280853Y-112163100D01*
X152216703Y-112008228D01*
X152184000Y-111843816D01*
X152184000Y-111676184D01*
X152216703Y-111511772D01*
X152280853Y-111356900D01*
X152373985Y-111217519D01*
X152492519Y-111098985D01*
X152631900Y-111005853D01*
X152786772Y-110941703D01*
X152951184Y-110909000D01*
X153118816Y-110909000D01*
X153283228Y-110941703D01*
G37*
G36*
X158363228Y-110941703D02*
G01*
X158518100Y-111005853D01*
X158657481Y-111098985D01*
X158776015Y-111217519D01*
X158869147Y-111356900D01*
X158933297Y-111511772D01*
X158966000Y-111676184D01*
X158966000Y-111843816D01*
X158933297Y-112008228D01*
X158869147Y-112163100D01*
X158776015Y-112302481D01*
X158657481Y-112421015D01*
X158518100Y-112514147D01*
X158363228Y-112578297D01*
X158198816Y-112611000D01*
X158031184Y-112611000D01*
X157866772Y-112578297D01*
X157711900Y-112514147D01*
X157572519Y-112421015D01*
X157453985Y-112302481D01*
X157360853Y-112163100D01*
X157296703Y-112008228D01*
X157264000Y-111843816D01*
X157264000Y-111676184D01*
X157296703Y-111511772D01*
X157360853Y-111356900D01*
X157453985Y-111217519D01*
X157572519Y-111098985D01*
X157711900Y-111005853D01*
X157866772Y-110941703D01*
X158031184Y-110909000D01*
X158198816Y-110909000D01*
X158363228Y-110941703D01*
G37*
G36*
X153717499Y-108698445D02*
G01*
X153754995Y-108709820D01*
X153789554Y-108728292D01*
X153819847Y-108753153D01*
X153844708Y-108783446D01*
X153863180Y-108818005D01*
X153874555Y-108855501D01*
X153879000Y-108900638D01*
X153879000Y-109539362D01*
X153874555Y-109584499D01*
X153863180Y-109621995D01*
X153844708Y-109656554D01*
X153819847Y-109686847D01*
X153789554Y-109711708D01*
X153754995Y-109730180D01*
X153717499Y-109741555D01*
X153672362Y-109746000D01*
X152933638Y-109746000D01*
X152888501Y-109741555D01*
X152851005Y-109730180D01*
X152816446Y-109711708D01*
X152786153Y-109686847D01*
X152761292Y-109656554D01*
X152742820Y-109621995D01*
X152731445Y-109584499D01*
X152727000Y-109539362D01*
X152727000Y-108900638D01*
X152731445Y-108855501D01*
X152742820Y-108818005D01*
X152761292Y-108783446D01*
X152786153Y-108753153D01*
X152816446Y-108728292D01*
X152851005Y-108709820D01*
X152888501Y-108698445D01*
X152933638Y-108694000D01*
X153672362Y-108694000D01*
X153717499Y-108698445D01*
G37*
G36*
X155467499Y-108698445D02*
G01*
X155504995Y-108709820D01*
X155539554Y-108728292D01*
X155569847Y-108753153D01*
X155594708Y-108783446D01*
X155613180Y-108818005D01*
X155624555Y-108855501D01*
X155629000Y-108900638D01*
X155629000Y-109539362D01*
X155624555Y-109584499D01*
X155613180Y-109621995D01*
X155594708Y-109656554D01*
X155569847Y-109686847D01*
X155539554Y-109711708D01*
X155504995Y-109730180D01*
X155467499Y-109741555D01*
X155422362Y-109746000D01*
X154683638Y-109746000D01*
X154638501Y-109741555D01*
X154601005Y-109730180D01*
X154566446Y-109711708D01*
X154536153Y-109686847D01*
X154511292Y-109656554D01*
X154492820Y-109621995D01*
X154481445Y-109584499D01*
X154477000Y-109539362D01*
X154477000Y-108900638D01*
X154481445Y-108855501D01*
X154492820Y-108818005D01*
X154511292Y-108783446D01*
X154536153Y-108753153D01*
X154566446Y-108728292D01*
X154601005Y-108709820D01*
X154638501Y-108698445D01*
X154683638Y-108694000D01*
X155422362Y-108694000D01*
X155467499Y-108698445D01*
G37*
G36*
X158896499Y-107428445D02*
G01*
X158933995Y-107439820D01*
X158968554Y-107458292D01*
X158998847Y-107483153D01*
X159023708Y-107513446D01*
X159042180Y-107548005D01*
X159053555Y-107585501D01*
X159058000Y-107630638D01*
X159058000Y-108269362D01*
X159053555Y-108314499D01*
X159042180Y-108351995D01*
X159023708Y-108386554D01*
X158998847Y-108416847D01*
X158968554Y-108441708D01*
X158933995Y-108460180D01*
X158896499Y-108471555D01*
X158851362Y-108476000D01*
X158112638Y-108476000D01*
X158067501Y-108471555D01*
X158030005Y-108460180D01*
X157995446Y-108441708D01*
X157965153Y-108416847D01*
X157940292Y-108386554D01*
X157921820Y-108351995D01*
X157910445Y-108314499D01*
X157906000Y-108269362D01*
X157906000Y-107630638D01*
X157910445Y-107585501D01*
X157921820Y-107548005D01*
X157940292Y-107513446D01*
X157965153Y-107483153D01*
X157995446Y-107458292D01*
X158030005Y-107439820D01*
X158067501Y-107428445D01*
X158112638Y-107424000D01*
X158851362Y-107424000D01*
X158896499Y-107428445D01*
G37*
G36*
X157146499Y-107428445D02*
G01*
X157183995Y-107439820D01*
X157218554Y-107458292D01*
X157248847Y-107483153D01*
X157273708Y-107513446D01*
X157292180Y-107548005D01*
X157303555Y-107585501D01*
X157308000Y-107630638D01*
X157308000Y-108269362D01*
X157303555Y-108314499D01*
X157292180Y-108351995D01*
X157273708Y-108386554D01*
X157248847Y-108416847D01*
X157218554Y-108441708D01*
X157183995Y-108460180D01*
X157146499Y-108471555D01*
X157101362Y-108476000D01*
X156362638Y-108476000D01*
X156317501Y-108471555D01*
X156280005Y-108460180D01*
X156245446Y-108441708D01*
X156215153Y-108416847D01*
X156190292Y-108386554D01*
X156171820Y-108351995D01*
X156160445Y-108314499D01*
X156156000Y-108269362D01*
X156156000Y-107630638D01*
X156160445Y-107585501D01*
X156171820Y-107548005D01*
X156190292Y-107513446D01*
X156215153Y-107483153D01*
X156245446Y-107458292D01*
X156280005Y-107439820D01*
X156317501Y-107428445D01*
X156362638Y-107424000D01*
X157101362Y-107424000D01*
X157146499Y-107428445D01*
G37*
G36*
X154253604Y-106773347D02*
G01*
X154290144Y-106784432D01*
X154323821Y-106802433D01*
X154353341Y-106826659D01*
X154377567Y-106856179D01*
X154395568Y-106889856D01*
X154406653Y-106926396D01*
X154411000Y-106970538D01*
X154411000Y-107919462D01*
X154406653Y-107963604D01*
X154395568Y-108000144D01*
X154377567Y-108033821D01*
X154353341Y-108063341D01*
X154323821Y-108087567D01*
X154290144Y-108105568D01*
X154253604Y-108116653D01*
X154209462Y-108121000D01*
X151860538Y-108121000D01*
X151816396Y-108116653D01*
X151779856Y-108105568D01*
X151746179Y-108087567D01*
X151716659Y-108063341D01*
X151692433Y-108033821D01*
X151674432Y-108000144D01*
X151663347Y-107963604D01*
X151659000Y-107919462D01*
X151659000Y-106970538D01*
X151663347Y-106926396D01*
X151674432Y-106889856D01*
X151692433Y-106856179D01*
X151716659Y-106826659D01*
X151746179Y-106802433D01*
X151779856Y-106784432D01*
X151816396Y-106773347D01*
X151860538Y-106769000D01*
X154209462Y-106769000D01*
X154253604Y-106773347D01*
G37*
G36*
X156961000Y-106736000D02*
G01*
X155299000Y-106736000D01*
X155299000Y-104084000D01*
X156961000Y-104084000D01*
X156961000Y-106736000D01*
G37*
G36*
X159661000Y-106736000D02*
G01*
X157999000Y-106736000D01*
X157999000Y-105984000D01*
X159661000Y-105984000D01*
X159661000Y-106736000D01*
G37*
G36*
X154253604Y-103973347D02*
G01*
X154290144Y-103984432D01*
X154323821Y-104002433D01*
X154353341Y-104026659D01*
X154377567Y-104056179D01*
X154395568Y-104089856D01*
X154406653Y-104126396D01*
X154411000Y-104170538D01*
X154411000Y-105119462D01*
X154406653Y-105163604D01*
X154395568Y-105200144D01*
X154377567Y-105233821D01*
X154353341Y-105263341D01*
X154323821Y-105287567D01*
X154290144Y-105305568D01*
X154253604Y-105316653D01*
X154209462Y-105321000D01*
X151860538Y-105321000D01*
X151816396Y-105316653D01*
X151779856Y-105305568D01*
X151746179Y-105287567D01*
X151716659Y-105263341D01*
X151692433Y-105233821D01*
X151674432Y-105200144D01*
X151663347Y-105163604D01*
X151659000Y-105119462D01*
X151659000Y-104170538D01*
X151663347Y-104126396D01*
X151674432Y-104089856D01*
X151692433Y-104056179D01*
X151716659Y-104026659D01*
X151746179Y-104002433D01*
X151779856Y-103984432D01*
X151816396Y-103973347D01*
X151860538Y-103969000D01*
X154209462Y-103969000D01*
X154253604Y-103973347D01*
G37*
G36*
X159661000Y-104836000D02*
G01*
X157999000Y-104836000D01*
X157999000Y-104084000D01*
X159661000Y-104084000D01*
X159661000Y-104836000D01*
G37*
M02*
