G04 #@! TF.GenerationSoftware,KiCad,Pcbnew,(5.1.5)-3*
G04 #@! TF.CreationDate,2020-05-23T19:11:45+09:00*
G04 #@! TF.ProjectId,TPS61322xA_Breakout,54505336-3133-4323-9278-415f42726561,rev?*
G04 #@! TF.SameCoordinates,Original*
G04 #@! TF.FileFunction,Legend,Top*
G04 #@! TF.FilePolarity,Positive*
%FSLAX46Y46*%
G04 Gerber Fmt 4.6, Leading zero omitted, Abs format (unit mm)*
G04 Created by KiCad (PCBNEW (5.1.5)-3) date 2020-05-23 19:11:45*
%MOMM*%
%LPD*%
G04 APERTURE LIST*
%ADD10C,0.150000*%
%ADD11C,0.120000*%
%ADD12R,1.662000X0.752000*%
%ADD13C,0.100000*%
%ADD14C,1.702000*%
G04 APERTURE END LIST*
D10*
X157315000Y-110051904D02*
X157467380Y-110051904D01*
X157543571Y-110090000D01*
X157619761Y-110166190D01*
X157657857Y-110318571D01*
X157657857Y-110585238D01*
X157619761Y-110737619D01*
X157543571Y-110813809D01*
X157467380Y-110851904D01*
X157315000Y-110851904D01*
X157238809Y-110813809D01*
X157162619Y-110737619D01*
X157124523Y-110585238D01*
X157124523Y-110318571D01*
X157162619Y-110166190D01*
X157238809Y-110090000D01*
X157315000Y-110051904D01*
X158000714Y-110051904D02*
X158000714Y-110699523D01*
X158038809Y-110775714D01*
X158076904Y-110813809D01*
X158153095Y-110851904D01*
X158305476Y-110851904D01*
X158381666Y-110813809D01*
X158419761Y-110775714D01*
X158457857Y-110699523D01*
X158457857Y-110051904D01*
X158724523Y-110051904D02*
X159181666Y-110051904D01*
X158953095Y-110851904D02*
X158953095Y-110051904D01*
X154965476Y-110090000D02*
X154889285Y-110051904D01*
X154775000Y-110051904D01*
X154660714Y-110090000D01*
X154584523Y-110166190D01*
X154546428Y-110242380D01*
X154508333Y-110394761D01*
X154508333Y-110509047D01*
X154546428Y-110661428D01*
X154584523Y-110737619D01*
X154660714Y-110813809D01*
X154775000Y-110851904D01*
X154851190Y-110851904D01*
X154965476Y-110813809D01*
X155003571Y-110775714D01*
X155003571Y-110509047D01*
X154851190Y-110509047D01*
X155346428Y-110851904D02*
X155346428Y-110051904D01*
X155803571Y-110851904D01*
X155803571Y-110051904D01*
X156184523Y-110851904D02*
X156184523Y-110051904D01*
X156375000Y-110051904D01*
X156489285Y-110090000D01*
X156565476Y-110166190D01*
X156603571Y-110242380D01*
X156641666Y-110394761D01*
X156641666Y-110509047D01*
X156603571Y-110661428D01*
X156565476Y-110737619D01*
X156489285Y-110813809D01*
X156375000Y-110851904D01*
X156184523Y-110851904D01*
X152615952Y-110851904D02*
X152615952Y-110051904D01*
X152996904Y-110851904D02*
X152996904Y-110051904D01*
X153454047Y-110851904D01*
X153454047Y-110051904D01*
D11*
X158380000Y-103800000D02*
X155930000Y-103800000D01*
X156580000Y-107020000D02*
X158380000Y-107020000D01*
X154395000Y-106647064D02*
X154395000Y-105442936D01*
X151675000Y-106647064D02*
X151675000Y-105442936D01*
X157778267Y-107440000D02*
X157435733Y-107440000D01*
X157778267Y-108460000D02*
X157435733Y-108460000D01*
X154006733Y-109730000D02*
X154349267Y-109730000D01*
X154006733Y-108710000D02*
X154349267Y-108710000D01*
D10*
X157041904Y-106019523D02*
X157689523Y-106019523D01*
X157765714Y-105981428D01*
X157803809Y-105943333D01*
X157841904Y-105867142D01*
X157841904Y-105714761D01*
X157803809Y-105638571D01*
X157765714Y-105600476D01*
X157689523Y-105562380D01*
X157041904Y-105562380D01*
X157841904Y-104762380D02*
X157841904Y-105219523D01*
X157841904Y-104990952D02*
X157041904Y-104990952D01*
X157156190Y-105067142D01*
X157232380Y-105143333D01*
X157270476Y-105219523D01*
X153396904Y-106178333D02*
X153396904Y-106559285D01*
X152596904Y-106559285D01*
X153396904Y-105492619D02*
X153396904Y-105949761D01*
X153396904Y-105721190D02*
X152596904Y-105721190D01*
X152711190Y-105797380D01*
X152787380Y-105873571D01*
X152825476Y-105949761D01*
X155860714Y-107956333D02*
X155898809Y-107994428D01*
X155936904Y-108108714D01*
X155936904Y-108184904D01*
X155898809Y-108299190D01*
X155822619Y-108375380D01*
X155746428Y-108413476D01*
X155594047Y-108451571D01*
X155479761Y-108451571D01*
X155327380Y-108413476D01*
X155251190Y-108375380D01*
X155175000Y-108299190D01*
X155136904Y-108184904D01*
X155136904Y-108108714D01*
X155175000Y-107994428D01*
X155213095Y-107956333D01*
X155213095Y-107651571D02*
X155175000Y-107613476D01*
X155136904Y-107537285D01*
X155136904Y-107346809D01*
X155175000Y-107270619D01*
X155213095Y-107232523D01*
X155289285Y-107194428D01*
X155365476Y-107194428D01*
X155479761Y-107232523D01*
X155936904Y-107689666D01*
X155936904Y-107194428D01*
X152431714Y-109226333D02*
X152469809Y-109264428D01*
X152507904Y-109378714D01*
X152507904Y-109454904D01*
X152469809Y-109569190D01*
X152393619Y-109645380D01*
X152317428Y-109683476D01*
X152165047Y-109721571D01*
X152050761Y-109721571D01*
X151898380Y-109683476D01*
X151822190Y-109645380D01*
X151746000Y-109569190D01*
X151707904Y-109454904D01*
X151707904Y-109378714D01*
X151746000Y-109264428D01*
X151784095Y-109226333D01*
X152507904Y-108464428D02*
X152507904Y-108921571D01*
X152507904Y-108693000D02*
X151707904Y-108693000D01*
X151822190Y-108769190D01*
X151898380Y-108845380D01*
X151936476Y-108921571D01*
%LPC*%
D12*
X158830000Y-104460000D03*
X158830000Y-106360000D03*
X156130000Y-106360000D03*
X156130000Y-105410000D03*
X156130000Y-104460000D03*
D13*
G36*
X154167104Y-103970302D02*
G01*
X154193352Y-103974196D01*
X154219093Y-103980643D01*
X154244078Y-103989583D01*
X154268066Y-104000928D01*
X154290826Y-104014571D01*
X154312140Y-104030378D01*
X154331802Y-104048198D01*
X154349622Y-104067860D01*
X154365429Y-104089174D01*
X154379072Y-104111934D01*
X154390417Y-104135922D01*
X154399357Y-104160907D01*
X154405804Y-104186648D01*
X154409698Y-104212896D01*
X154411000Y-104239400D01*
X154411000Y-105050600D01*
X154409698Y-105077104D01*
X154405804Y-105103352D01*
X154399357Y-105129093D01*
X154390417Y-105154078D01*
X154379072Y-105178066D01*
X154365429Y-105200826D01*
X154349622Y-105222140D01*
X154331802Y-105241802D01*
X154312140Y-105259622D01*
X154290826Y-105275429D01*
X154268066Y-105289072D01*
X154244078Y-105300417D01*
X154219093Y-105309357D01*
X154193352Y-105315804D01*
X154167104Y-105319698D01*
X154140600Y-105321000D01*
X151929400Y-105321000D01*
X151902896Y-105319698D01*
X151876648Y-105315804D01*
X151850907Y-105309357D01*
X151825922Y-105300417D01*
X151801934Y-105289072D01*
X151779174Y-105275429D01*
X151757860Y-105259622D01*
X151738198Y-105241802D01*
X151720378Y-105222140D01*
X151704571Y-105200826D01*
X151690928Y-105178066D01*
X151679583Y-105154078D01*
X151670643Y-105129093D01*
X151664196Y-105103352D01*
X151660302Y-105077104D01*
X151659000Y-105050600D01*
X151659000Y-104239400D01*
X151660302Y-104212896D01*
X151664196Y-104186648D01*
X151670643Y-104160907D01*
X151679583Y-104135922D01*
X151690928Y-104111934D01*
X151704571Y-104089174D01*
X151720378Y-104067860D01*
X151738198Y-104048198D01*
X151757860Y-104030378D01*
X151779174Y-104014571D01*
X151801934Y-104000928D01*
X151825922Y-103989583D01*
X151850907Y-103980643D01*
X151876648Y-103974196D01*
X151902896Y-103970302D01*
X151929400Y-103969000D01*
X154140600Y-103969000D01*
X154167104Y-103970302D01*
G37*
G36*
X154167104Y-106770302D02*
G01*
X154193352Y-106774196D01*
X154219093Y-106780643D01*
X154244078Y-106789583D01*
X154268066Y-106800928D01*
X154290826Y-106814571D01*
X154312140Y-106830378D01*
X154331802Y-106848198D01*
X154349622Y-106867860D01*
X154365429Y-106889174D01*
X154379072Y-106911934D01*
X154390417Y-106935922D01*
X154399357Y-106960907D01*
X154405804Y-106986648D01*
X154409698Y-107012896D01*
X154411000Y-107039400D01*
X154411000Y-107850600D01*
X154409698Y-107877104D01*
X154405804Y-107903352D01*
X154399357Y-107929093D01*
X154390417Y-107954078D01*
X154379072Y-107978066D01*
X154365429Y-108000826D01*
X154349622Y-108022140D01*
X154331802Y-108041802D01*
X154312140Y-108059622D01*
X154290826Y-108075429D01*
X154268066Y-108089072D01*
X154244078Y-108100417D01*
X154219093Y-108109357D01*
X154193352Y-108115804D01*
X154167104Y-108119698D01*
X154140600Y-108121000D01*
X151929400Y-108121000D01*
X151902896Y-108119698D01*
X151876648Y-108115804D01*
X151850907Y-108109357D01*
X151825922Y-108100417D01*
X151801934Y-108089072D01*
X151779174Y-108075429D01*
X151757860Y-108059622D01*
X151738198Y-108041802D01*
X151720378Y-108022140D01*
X151704571Y-108000826D01*
X151690928Y-107978066D01*
X151679583Y-107954078D01*
X151670643Y-107929093D01*
X151664196Y-107903352D01*
X151660302Y-107877104D01*
X151659000Y-107850600D01*
X151659000Y-107039400D01*
X151660302Y-107012896D01*
X151664196Y-106986648D01*
X151670643Y-106960907D01*
X151679583Y-106935922D01*
X151690928Y-106911934D01*
X151704571Y-106889174D01*
X151720378Y-106867860D01*
X151738198Y-106848198D01*
X151757860Y-106830378D01*
X151779174Y-106814571D01*
X151801934Y-106800928D01*
X151825922Y-106789583D01*
X151850907Y-106780643D01*
X151876648Y-106774196D01*
X151902896Y-106770302D01*
X151929400Y-106769000D01*
X154140600Y-106769000D01*
X154167104Y-106770302D01*
G37*
D14*
X158115000Y-111760000D03*
X155575000Y-111760000D03*
X153035000Y-111760000D03*
D13*
G36*
X157070779Y-107425266D02*
G01*
X157096309Y-107429053D01*
X157121345Y-107435325D01*
X157145646Y-107444020D01*
X157168977Y-107455055D01*
X157191115Y-107468323D01*
X157211845Y-107483698D01*
X157230969Y-107501031D01*
X157248302Y-107520155D01*
X157263677Y-107540885D01*
X157276945Y-107563023D01*
X157287980Y-107586354D01*
X157296675Y-107610655D01*
X157302947Y-107635691D01*
X157306734Y-107661221D01*
X157308000Y-107687000D01*
X157308000Y-108213000D01*
X157306734Y-108238779D01*
X157302947Y-108264309D01*
X157296675Y-108289345D01*
X157287980Y-108313646D01*
X157276945Y-108336977D01*
X157263677Y-108359115D01*
X157248302Y-108379845D01*
X157230969Y-108398969D01*
X157211845Y-108416302D01*
X157191115Y-108431677D01*
X157168977Y-108444945D01*
X157145646Y-108455980D01*
X157121345Y-108464675D01*
X157096309Y-108470947D01*
X157070779Y-108474734D01*
X157045000Y-108476000D01*
X156419000Y-108476000D01*
X156393221Y-108474734D01*
X156367691Y-108470947D01*
X156342655Y-108464675D01*
X156318354Y-108455980D01*
X156295023Y-108444945D01*
X156272885Y-108431677D01*
X156252155Y-108416302D01*
X156233031Y-108398969D01*
X156215698Y-108379845D01*
X156200323Y-108359115D01*
X156187055Y-108336977D01*
X156176020Y-108313646D01*
X156167325Y-108289345D01*
X156161053Y-108264309D01*
X156157266Y-108238779D01*
X156156000Y-108213000D01*
X156156000Y-107687000D01*
X156157266Y-107661221D01*
X156161053Y-107635691D01*
X156167325Y-107610655D01*
X156176020Y-107586354D01*
X156187055Y-107563023D01*
X156200323Y-107540885D01*
X156215698Y-107520155D01*
X156233031Y-107501031D01*
X156252155Y-107483698D01*
X156272885Y-107468323D01*
X156295023Y-107455055D01*
X156318354Y-107444020D01*
X156342655Y-107435325D01*
X156367691Y-107429053D01*
X156393221Y-107425266D01*
X156419000Y-107424000D01*
X157045000Y-107424000D01*
X157070779Y-107425266D01*
G37*
G36*
X158820779Y-107425266D02*
G01*
X158846309Y-107429053D01*
X158871345Y-107435325D01*
X158895646Y-107444020D01*
X158918977Y-107455055D01*
X158941115Y-107468323D01*
X158961845Y-107483698D01*
X158980969Y-107501031D01*
X158998302Y-107520155D01*
X159013677Y-107540885D01*
X159026945Y-107563023D01*
X159037980Y-107586354D01*
X159046675Y-107610655D01*
X159052947Y-107635691D01*
X159056734Y-107661221D01*
X159058000Y-107687000D01*
X159058000Y-108213000D01*
X159056734Y-108238779D01*
X159052947Y-108264309D01*
X159046675Y-108289345D01*
X159037980Y-108313646D01*
X159026945Y-108336977D01*
X159013677Y-108359115D01*
X158998302Y-108379845D01*
X158980969Y-108398969D01*
X158961845Y-108416302D01*
X158941115Y-108431677D01*
X158918977Y-108444945D01*
X158895646Y-108455980D01*
X158871345Y-108464675D01*
X158846309Y-108470947D01*
X158820779Y-108474734D01*
X158795000Y-108476000D01*
X158169000Y-108476000D01*
X158143221Y-108474734D01*
X158117691Y-108470947D01*
X158092655Y-108464675D01*
X158068354Y-108455980D01*
X158045023Y-108444945D01*
X158022885Y-108431677D01*
X158002155Y-108416302D01*
X157983031Y-108398969D01*
X157965698Y-108379845D01*
X157950323Y-108359115D01*
X157937055Y-108336977D01*
X157926020Y-108313646D01*
X157917325Y-108289345D01*
X157911053Y-108264309D01*
X157907266Y-108238779D01*
X157906000Y-108213000D01*
X157906000Y-107687000D01*
X157907266Y-107661221D01*
X157911053Y-107635691D01*
X157917325Y-107610655D01*
X157926020Y-107586354D01*
X157937055Y-107563023D01*
X157950323Y-107540885D01*
X157965698Y-107520155D01*
X157983031Y-107501031D01*
X158002155Y-107483698D01*
X158022885Y-107468323D01*
X158045023Y-107455055D01*
X158068354Y-107444020D01*
X158092655Y-107435325D01*
X158117691Y-107429053D01*
X158143221Y-107425266D01*
X158169000Y-107424000D01*
X158795000Y-107424000D01*
X158820779Y-107425266D01*
G37*
G36*
X155391779Y-108695266D02*
G01*
X155417309Y-108699053D01*
X155442345Y-108705325D01*
X155466646Y-108714020D01*
X155489977Y-108725055D01*
X155512115Y-108738323D01*
X155532845Y-108753698D01*
X155551969Y-108771031D01*
X155569302Y-108790155D01*
X155584677Y-108810885D01*
X155597945Y-108833023D01*
X155608980Y-108856354D01*
X155617675Y-108880655D01*
X155623947Y-108905691D01*
X155627734Y-108931221D01*
X155629000Y-108957000D01*
X155629000Y-109483000D01*
X155627734Y-109508779D01*
X155623947Y-109534309D01*
X155617675Y-109559345D01*
X155608980Y-109583646D01*
X155597945Y-109606977D01*
X155584677Y-109629115D01*
X155569302Y-109649845D01*
X155551969Y-109668969D01*
X155532845Y-109686302D01*
X155512115Y-109701677D01*
X155489977Y-109714945D01*
X155466646Y-109725980D01*
X155442345Y-109734675D01*
X155417309Y-109740947D01*
X155391779Y-109744734D01*
X155366000Y-109746000D01*
X154740000Y-109746000D01*
X154714221Y-109744734D01*
X154688691Y-109740947D01*
X154663655Y-109734675D01*
X154639354Y-109725980D01*
X154616023Y-109714945D01*
X154593885Y-109701677D01*
X154573155Y-109686302D01*
X154554031Y-109668969D01*
X154536698Y-109649845D01*
X154521323Y-109629115D01*
X154508055Y-109606977D01*
X154497020Y-109583646D01*
X154488325Y-109559345D01*
X154482053Y-109534309D01*
X154478266Y-109508779D01*
X154477000Y-109483000D01*
X154477000Y-108957000D01*
X154478266Y-108931221D01*
X154482053Y-108905691D01*
X154488325Y-108880655D01*
X154497020Y-108856354D01*
X154508055Y-108833023D01*
X154521323Y-108810885D01*
X154536698Y-108790155D01*
X154554031Y-108771031D01*
X154573155Y-108753698D01*
X154593885Y-108738323D01*
X154616023Y-108725055D01*
X154639354Y-108714020D01*
X154663655Y-108705325D01*
X154688691Y-108699053D01*
X154714221Y-108695266D01*
X154740000Y-108694000D01*
X155366000Y-108694000D01*
X155391779Y-108695266D01*
G37*
G36*
X153641779Y-108695266D02*
G01*
X153667309Y-108699053D01*
X153692345Y-108705325D01*
X153716646Y-108714020D01*
X153739977Y-108725055D01*
X153762115Y-108738323D01*
X153782845Y-108753698D01*
X153801969Y-108771031D01*
X153819302Y-108790155D01*
X153834677Y-108810885D01*
X153847945Y-108833023D01*
X153858980Y-108856354D01*
X153867675Y-108880655D01*
X153873947Y-108905691D01*
X153877734Y-108931221D01*
X153879000Y-108957000D01*
X153879000Y-109483000D01*
X153877734Y-109508779D01*
X153873947Y-109534309D01*
X153867675Y-109559345D01*
X153858980Y-109583646D01*
X153847945Y-109606977D01*
X153834677Y-109629115D01*
X153819302Y-109649845D01*
X153801969Y-109668969D01*
X153782845Y-109686302D01*
X153762115Y-109701677D01*
X153739977Y-109714945D01*
X153716646Y-109725980D01*
X153692345Y-109734675D01*
X153667309Y-109740947D01*
X153641779Y-109744734D01*
X153616000Y-109746000D01*
X152990000Y-109746000D01*
X152964221Y-109744734D01*
X152938691Y-109740947D01*
X152913655Y-109734675D01*
X152889354Y-109725980D01*
X152866023Y-109714945D01*
X152843885Y-109701677D01*
X152823155Y-109686302D01*
X152804031Y-109668969D01*
X152786698Y-109649845D01*
X152771323Y-109629115D01*
X152758055Y-109606977D01*
X152747020Y-109583646D01*
X152738325Y-109559345D01*
X152732053Y-109534309D01*
X152728266Y-109508779D01*
X152727000Y-109483000D01*
X152727000Y-108957000D01*
X152728266Y-108931221D01*
X152732053Y-108905691D01*
X152738325Y-108880655D01*
X152747020Y-108856354D01*
X152758055Y-108833023D01*
X152771323Y-108810885D01*
X152786698Y-108790155D01*
X152804031Y-108771031D01*
X152823155Y-108753698D01*
X152843885Y-108738323D01*
X152866023Y-108725055D01*
X152889354Y-108714020D01*
X152913655Y-108705325D01*
X152938691Y-108699053D01*
X152964221Y-108695266D01*
X152990000Y-108694000D01*
X153616000Y-108694000D01*
X153641779Y-108695266D01*
G37*
M02*
